<svg width="143" height="50" viewBox="0 0 143 50" fill="none" xmlns="http://www.w3.org/2000/svg">
<path d="M11.3579 12.4199L11.2147 31.3167L6.06682 26.524V17.4423L11.3579 12.4199Z" fill="#115F8C"/>
<path d="M12.9969 13.7898V29.9508L11.2783 31.3772L11.2147 31.3167L11.3579 12.4199L11.3619 12.4179L12.9969 13.7898Z" fill="#11374D"/>
<path d="M24.4463 0V43.642L12.9989 32.9788V10.8667C13.1978 10.6753 24.2474 0.191386 24.4463 0Z" fill="#115F8C"/>
<path d="M42.7104 16.7332L42.7204 26.5583L37.6859 31.1495L37.2563 30.803L37.3736 12.0694L42.7104 16.7332Z" fill="#3CA6B0"/>
<path d="M37.4552 12.0694L37.3299 31.1495L36.2 30.1241V13.2076L37.4552 12.0694Z" fill="#11374D"/>
<path d="M25.1743 0.650711V42.9631L24.4503 43.6379V0L25.1743 0.650711Z" fill="#3CA6B0"/>
<path d="M30.6822 15.2887V37.8339L30.1034 38.3718V15.7682L30.6822 15.2887Z" fill="#3CA6B0"/>
<path d="M32.1323 14.086V36.4821L31.4082 37.157V14.6863L32.1323 14.086Z" fill="#3CA6B0"/>
<path d="M33.4371 13.0042V35.2673L32.8583 35.8072V13.4856L33.4371 13.0042Z" fill="#3CA6B0"/>
<path d="M34.742 11.9223V34.0526L34.1612 34.5925V12.4038L34.742 11.9223Z" fill="#3CA6B0"/>
<path d="M26.6244 1.95012V41.6133L26.0436 42.1532V1.43036L26.6244 1.95012Z" fill="#3CA6B0"/>
<path d="M28.0745 3.24953V40.2635L27.4936 40.8034V2.72977L28.0745 3.24953Z" fill="#3CA6B0"/>
<path d="M29.3773 4.41798V39.0467L28.6533 39.7236V3.76929L29.3773 4.41798Z" fill="#3CA6B0"/>
<path d="M30.6822 5.58846V15.2887L30.1034 15.7682V5.0687L30.6822 5.58846Z" fill="#3CA6B0"/>
<path d="M32.1323 6.88786V14.086L31.4082 14.6863V6.23715L32.1323 6.88786Z" fill="#3CA6B0"/>
<path d="M33.4371 8.05632V13.0041L32.8583 13.4856V7.53656L33.4371 8.05632Z" fill="#3CA6B0"/>
<path d="M34.742 9.22478V11.9223L34.1612 12.4018V8.70502L34.742 9.22478Z" fill="#3CA6B0"/>
<path d="M36.1921 10.5242V32.7028L35.8758 32.9949L35.6113 32.7733V10.0064L36.1921 10.5242Z" fill="#3CA6B0"/>
<path d="M47.6097 25.6255L24.1758 49.9879C20.0703 45.9728 3.92852 30.2147 0 26.379C0.918975 25.4825 2.85439 23.5908 3.77933 22.6862V25.9096L3.29598 26.381L4.01604 27.0841L24.3051 46.9056L44.1028 26.3206L44.7752 25.6215L44.081 24.9426L44.0352 22.1483L47.6097 25.6255Z" fill="#11374D"/>
<path d="M101.366 20.8308L100.349 20.8429C100.254 20.5933 100.081 20.3815 99.8579 20.2385C99.6787 20.1251 99.4725 20.0631 99.2612 20.0592H99.1637V19.9343H101.923V20.0592H101.823C101.745 20.0606 101.667 20.0794 101.596 20.1142C101.526 20.149 101.463 20.199 101.413 20.2607C101.353 20.3413 101.316 20.4378 101.308 20.5387C101.299 20.6397 101.319 20.741 101.366 20.8308ZM103.794 28.8025L99.9932 20.0109H101.028L104.031 27.622L103.794 28.8025ZM103.794 28.8025L103.683 27.9322L106.945 19.9726H107.681L104.357 27.5233C104.268 27.7247 104.192 27.9081 104.131 28.0571C104.069 28.2062 104.017 28.3513 103.971 28.4923C103.934 28.5919 103.911 28.6964 103.904 28.8025H103.794ZM106.597 20.8308C106.644 20.7408 106.665 20.6388 106.656 20.5373C106.647 20.4357 106.61 20.3389 106.547 20.2587C106.496 20.1971 106.433 20.1473 106.361 20.1125C106.289 20.0778 106.211 20.0589 106.132 20.0572H106.02V19.9323H108.485V20.0572H108.387C108.183 20.0638 107.983 20.1257 107.81 20.2365C107.585 20.3809 107.41 20.5919 107.307 20.8409L106.597 20.8308Z" fill="#11374D"/>
<path d="M109.716 21.9731H109.678C109.675 21.8795 109.65 21.788 109.607 21.7053C109.564 21.6226 109.502 21.5509 109.428 21.4956C109.263 21.3616 109.056 21.2903 108.845 21.2942H108.674V21.1693H109.716V21.9731ZM109.716 27.8335V28.6273H108.674V28.5044H108.845C109.057 28.5099 109.263 28.4384 109.428 28.3029C109.501 28.2478 109.561 28.177 109.605 28.0955C109.648 28.014 109.673 27.9239 109.678 27.8315L109.716 27.8335ZM110.45 21.1854V28.6394H109.678V21.1854H110.45ZM110.414 21.9812V21.1854H111.457L111.445 21.3103H111.283C111.072 21.3063 110.867 21.3777 110.703 21.5118C110.628 21.5669 110.566 21.6385 110.522 21.7212C110.479 21.8039 110.454 21.8955 110.45 21.9892L110.414 21.9812ZM110.414 27.8416H110.45C110.455 27.9341 110.481 28.0243 110.525 28.1058C110.568 28.1872 110.629 28.258 110.703 28.313C110.866 28.4485 111.072 28.52 111.283 28.5145H111.445L111.457 28.6374H110.414V27.8416Z" fill="#11374D"/>
<path d="M113.674 21.9852H113.651C113.649 21.8931 113.63 21.8022 113.593 21.718C113.556 21.6338 113.502 21.5581 113.436 21.4956C113.37 21.4307 113.293 21.3795 113.208 21.3449C113.123 21.3104 113.032 21.2931 112.94 21.2942H112.793V21.1693H113.674V21.9852ZM113.674 27.8275V28.6333H112.793V28.5104H112.952C113.043 28.5131 113.134 28.4966 113.218 28.4619C113.302 28.4272 113.378 28.3751 113.442 28.309C113.568 28.1823 113.643 28.0117 113.651 27.8315L113.674 27.8275ZM114.448 21.1794V28.6333H113.652V21.1794H114.448ZM116.887 21.1794C117.611 21.1606 118.329 21.3138 118.983 21.6266C119.554 21.9076 120.027 22.3553 120.344 22.9119C120.659 23.5269 120.823 24.2095 120.823 24.9023C120.823 25.5951 120.659 26.2777 120.344 26.8927C120.026 27.4474 119.552 27.894 118.983 28.176C118.33 28.4937 117.611 28.6491 116.887 28.6293H114.275L114.251 28.2586H116.887C117.835 28.2586 118.581 27.9584 119.125 27.3581C119.668 26.7577 119.94 25.9398 119.94 24.9043C119.94 23.8702 119.668 23.0529 119.125 22.4526C118.581 21.8522 117.835 21.5521 116.887 21.5521H114.128V21.1794H116.887Z" fill="#11374D"/>
<path d="M122.82 21.961H122.796C122.795 21.8719 122.776 21.784 122.74 21.7027C122.704 21.6213 122.652 21.5482 122.588 21.4876C122.455 21.3636 122.279 21.2971 122.098 21.3022H121.925V21.1773H122.968L122.82 21.961ZM122.82 27.8335L122.968 28.6273H121.925V28.5044H122.098C122.189 28.5065 122.279 28.4897 122.364 28.455C122.448 28.4204 122.524 28.3686 122.588 28.3029C122.715 28.1793 122.79 28.0102 122.796 27.8315L122.82 27.8335ZM123.568 21.1854V28.6394H122.785V21.1854H123.568ZM123.532 27.8335H123.568C123.572 28.0108 123.643 28.1797 123.767 28.3049C123.831 28.3708 123.908 28.4226 123.992 28.4573C124.077 28.4919 124.167 28.5086 124.258 28.5064H124.418L124.43 28.6293H123.375L123.532 27.8335ZM125.002 21.1854C125.353 21.1811 125.701 21.2272 126.039 21.3224C126.327 21.4028 126.598 21.5397 126.834 21.7253C127.047 21.894 127.217 22.1115 127.33 22.3599C127.455 22.6477 127.514 22.9608 127.501 23.2751C127.488 23.5895 127.404 23.8966 127.256 24.173C127.093 24.4707 126.86 24.7222 126.576 24.9043C126.276 25.0988 125.935 25.2182 125.581 25.2528C125.767 25.3466 125.932 25.4775 126.067 25.6376C126.237 25.8209 126.395 26.0161 126.538 26.2219C126.751 26.5099 126.936 26.7618 127.107 26.9713C127.278 27.1808 127.441 27.3843 127.604 27.5757C127.767 27.767 127.932 27.9322 128.076 28.0733C128.212 28.2091 128.37 28.3202 128.543 28.4016C128.726 28.4839 128.924 28.5244 129.124 28.5205V28.6434H128.744C128.367 28.6559 127.99 28.5972 127.634 28.4701C127.375 28.3736 127.136 28.2288 126.93 28.043C126.766 27.888 126.61 27.7239 126.464 27.5515C126.431 27.5112 126.355 27.4044 126.238 27.2352L125.852 26.6832L125.472 26.1413L125.273 25.8512C125.109 25.6352 124.92 25.4409 124.708 25.273C124.519 25.1125 124.281 25.0229 124.034 25.0191V24.8942C124.296 24.8942 124.529 24.8942 124.734 24.8942C124.939 24.8942 125.191 24.8681 125.42 24.8378C125.654 24.8079 125.875 24.7161 126.063 24.5719C126.292 24.3787 126.458 24.1184 126.536 23.8265C126.571 23.7217 126.595 23.6138 126.61 23.5042C126.626 23.3766 126.63 23.2478 126.622 23.1194C126.617 22.9062 126.573 22.6957 126.492 22.4989C126.417 22.3189 126.304 22.1574 126.162 22.0255C126.013 21.8902 125.841 21.7849 125.653 21.7152C125.44 21.638 125.216 21.5965 124.99 21.5923C124.607 21.5742 124.27 21.5702 123.996 21.5782C123.853 21.5917 123.709 21.5917 123.566 21.5782C123.559 21.5425 123.548 21.5074 123.534 21.4735C123.515 21.411 123.485 21.3184 123.443 21.1935L125.002 21.1854Z" fill="#11374D"/>
<path d="M133.251 21.0041C133.801 20.9997 134.347 21.0946 134.864 21.2841C135.354 21.463 135.804 21.7367 136.189 22.0899C136.567 22.4352 136.87 22.8565 137.078 23.3269C137.288 23.8273 137.397 24.3656 137.397 24.9093C137.397 25.4531 137.288 25.9913 137.078 26.4918C136.871 26.9619 136.568 27.3826 136.189 27.7267C135.804 28.0805 135.354 28.3542 134.864 28.5326C134.347 28.7211 133.801 28.8159 133.251 28.8126C132.704 28.8161 132.161 28.7213 131.646 28.5326C131.159 28.3528 130.711 28.0791 130.327 27.7267C129.949 27.3831 129.647 26.9622 129.44 26.4918C129.229 25.9916 129.12 25.4533 129.12 24.9093C129.12 24.3654 129.229 23.8271 129.44 23.3269C129.647 22.8561 129.949 22.4347 130.327 22.0899C130.712 21.7381 131.16 21.4645 131.646 21.2841C132.16 21.0943 132.704 20.9994 133.251 21.0041ZM133.251 28.4298C133.829 28.4373 134.398 28.2825 134.894 27.9826C135.387 27.6834 135.79 27.2545 136.06 26.7416C136.342 26.17 136.49 25.5395 136.49 24.9003C136.49 24.261 136.342 23.6306 136.06 23.0589C135.788 22.5486 135.385 22.122 134.894 21.824C134.398 21.5312 133.833 21.3769 133.258 21.3769C132.683 21.3769 132.119 21.5312 131.622 21.824C131.131 22.122 130.728 22.5486 130.457 23.0589C130.174 23.6306 130.027 24.261 130.027 24.9003C130.027 25.5395 130.174 26.17 130.457 26.7416C130.727 27.2545 131.13 27.6834 131.622 27.9826C132.114 28.2815 132.678 28.4363 133.251 28.4298Z" fill="#11374D"/>
<path d="M140.868 21.0041C141.096 21.0041 141.297 21.0041 141.464 21.0283C141.631 21.0524 141.785 21.0645 141.912 21.0847C142.024 21.102 142.134 21.1269 142.242 21.1592L142.495 21.2398L142.507 22.4687H142.36C142.367 22.3166 142.34 22.1648 142.281 22.025C142.221 21.8852 142.13 21.7613 142.015 21.6629C141.787 21.4668 141.432 21.3694 140.949 21.3707C140.572 21.3614 140.203 21.4813 139.901 21.7112C139.768 21.8056 139.66 21.9315 139.586 22.0779C139.512 22.2244 139.475 22.3869 139.477 22.5513C139.479 22.6621 139.493 22.7724 139.521 22.8797C139.552 22.9967 139.601 23.1077 139.668 23.208C139.749 23.329 139.846 23.4375 139.957 23.5304L142.433 25.4684C142.622 25.629 142.766 25.8376 142.849 26.0728C142.937 26.3046 142.987 26.5497 142.996 26.798C143.006 27.1549 142.908 27.5064 142.716 27.8053C142.517 28.1126 142.243 28.3625 141.92 28.5306C141.582 28.7115 141.204 28.8036 140.822 28.7985C140.566 28.7962 140.31 28.7754 140.056 28.7361C139.795 28.6955 139.538 28.628 139.29 28.5346C139.074 28.4622 138.871 28.351 138.694 28.2062C138.667 28.0608 138.655 27.9129 138.658 27.765C138.659 27.5762 138.673 27.3878 138.7 27.201C138.725 27.0201 138.764 26.8416 138.817 26.6671H138.964C138.923 26.9943 138.978 27.3266 139.123 27.622C139.258 27.8847 139.473 28.0966 139.736 28.2264C140.03 28.3711 140.354 28.4403 140.681 28.4278C141.11 28.4366 141.531 28.299 141.874 28.037C142.015 27.9191 142.128 27.7698 142.203 27.6007C142.278 27.4316 142.314 27.2473 142.308 27.0619C142.314 26.8733 142.277 26.6857 142.201 26.5136C142.124 26.3414 142.01 26.1893 141.866 26.0688L139.416 24.1569C139.205 23.9835 139.044 23.756 138.95 23.4981C138.871 23.2793 138.829 23.0483 138.827 22.8152C138.823 22.4886 138.917 22.1684 139.095 21.8965C139.28 21.6193 139.531 21.3946 139.825 21.2438C140.148 21.0779 140.506 20.9955 140.868 21.0041ZM142.485 21.1169L142.499 21.3385H141.628V21.1169H142.485Z" fill="#11374D"/>
<path d="M54.3846 20.8429H54.3488C54.3427 20.6346 54.2572 20.4367 54.1101 20.2909C54.0392 20.2168 53.9541 20.1582 53.8601 20.1187C53.766 20.0793 53.6649 20.0597 53.5631 20.0612H53.404V19.9363H54.3846V20.8429ZM54.3846 27.7207V28.6273H53.404V28.5044H53.5631C53.6649 28.5059 53.766 28.4864 53.8601 28.4469C53.9541 28.4074 54.0392 28.3488 54.1101 28.2747C54.2576 28.1284 54.3432 27.9297 54.3488 27.7207H54.3846ZM56.1867 19.9363V28.6273H54.3488V19.9363H56.1867ZM56.9466 19.9363C57.488 19.9287 58.0276 20.002 58.5478 20.1539C58.9736 20.2718 59.3582 20.5084 59.6578 20.8369C59.9358 21.1803 60.0776 21.6162 60.0556 22.0597C60.0657 22.3959 59.9918 22.7292 59.8408 23.0287C59.7111 23.2765 59.519 23.4851 59.2838 23.6331C59.0634 23.7709 58.8166 23.8595 58.5598 23.893C58.9512 23.9215 59.331 24.0407 59.6697 24.2415C59.9933 24.4323 60.2616 24.706 60.4474 25.0353C60.6423 25.3924 60.7398 25.7957 60.7299 26.2037C60.7454 26.6855 60.5933 27.1575 60.3002 27.5374C59.9816 27.9168 59.5628 28.1963 59.0928 28.3432C58.5092 28.5346 57.8982 28.6265 57.2847 28.6152H56.0734C56.0734 28.4258 56.0853 28.2405 56.0853 28.0571H56.7477C57.0844 28.064 57.418 27.9916 57.7223 27.8456C58.0061 27.703 58.2379 27.4731 58.3847 27.1888C58.5563 26.8339 58.6383 26.4415 58.6234 26.0466C58.6314 25.7275 58.5752 25.4102 58.4583 25.1138C58.3588 24.8744 58.208 24.6604 58.0167 24.4873C57.8291 24.3243 57.6094 24.2034 57.3723 24.1327C57.1217 24.0578 56.8617 24.0204 56.6005 24.0219V23.9091C56.788 23.9095 56.9742 23.8782 57.1515 23.8164C57.3317 23.7546 57.497 23.6551 57.6368 23.5243C57.7884 23.3777 57.9036 23.1968 57.973 22.9965C58.0605 22.7436 58.1023 22.4767 58.0963 22.2088C58.1082 21.8587 58.0401 21.5105 57.8974 21.1914C57.7836 20.9476 57.5914 20.7502 57.3524 20.6314C57.0949 20.5118 56.8141 20.4526 56.5309 20.4581H54.9396C54.9315 20.4099 54.9209 20.3622 54.9077 20.3151C54.8878 20.2285 54.858 20.0975 54.8162 19.9243L56.9466 19.9363Z" fill="#11374D"/>
<path d="M62.4385 21.9489H62.4127C62.4119 21.8615 62.3939 21.7752 62.3598 21.6949C62.3256 21.6147 62.276 21.5421 62.2138 21.4815C62.0933 21.3651 61.9327 21.3008 61.7662 21.3022H61.6071V21.1773H62.4883L62.4385 21.9489ZM62.4385 27.8416L62.4863 28.6232H61.6051V28.5004H61.7503C61.8368 28.5007 61.9224 28.483 62.0018 28.4484C62.0812 28.4137 62.1527 28.3628 62.2118 28.2989C62.3349 28.1756 62.4062 28.0088 62.4107 27.8335L62.4385 27.8416ZM64.179 21.1733V28.6273H62.4008V21.1733H64.179ZM65.3725 21.1733C65.7022 21.1731 66.031 21.2089 66.3531 21.2801C66.6549 21.3437 66.9445 21.4566 67.2104 21.6145C67.4618 21.7653 67.6707 21.979 67.8171 22.235C67.978 22.5335 68.057 22.8702 68.0459 23.2101C68.0444 23.5074 67.9835 23.8014 67.8669 24.0743C67.7465 24.3626 67.5571 24.616 67.3159 24.8116C67.0317 25.0306 66.6955 25.1695 66.3412 25.2146C66.5986 25.3024 66.8317 25.4508 67.0215 25.6477C67.2115 25.8307 67.3821 26.0333 67.5307 26.2521C67.5625 26.3186 67.6202 26.4253 67.7018 26.5704C67.7833 26.7154 67.8868 26.8806 68.0141 27.066C68.1414 27.2513 68.2726 27.4447 68.4119 27.6442C68.5413 27.8267 68.685 27.9985 68.8415 28.1579C68.9495 28.2686 69.0788 28.3557 69.2214 28.4137C69.3672 28.4652 69.5207 28.4904 69.675 28.4883V28.6112H68.6446C68.269 28.6174 67.8937 28.5844 67.5247 28.5124C67.235 28.4543 66.9627 28.3288 66.7291 28.1458C66.4821 27.9431 66.2726 27.6975 66.1105 27.4205C66.0262 27.2945 65.9485 27.164 65.8777 27.0297C65.7942 26.8766 65.7126 26.7215 65.6311 26.5623C65.5495 26.4032 65.4779 26.2521 65.4163 26.103C65.3652 25.982 65.3226 25.8574 65.289 25.7303C65.2128 25.513 65.089 25.316 64.9269 25.1541C64.8274 25.0511 64.6948 24.9875 64.553 24.9748V24.862H64.8593C65.0331 24.8618 65.2055 24.8304 65.3685 24.7693C65.552 24.695 65.7112 24.5701 65.828 24.4087C65.9901 24.1743 66.095 23.9044 66.1343 23.621C66.1539 23.5517 66.1686 23.481 66.1781 23.4095C66.1883 23.3063 66.1883 23.2024 66.1781 23.0992C66.1731 22.8438 66.1162 22.5921 66.011 22.3599C65.9324 22.1917 65.8126 22.0467 65.6629 21.9389C65.5347 21.8465 65.3912 21.7783 65.2392 21.7374C65.1174 21.7026 64.9918 21.6837 64.8653 21.681C64.7101 21.681 64.5689 21.6709 64.4436 21.681C64.3476 21.6878 64.2512 21.6878 64.1552 21.681C64.1552 21.681 64.1333 21.6367 64.1174 21.55C64.1015 21.4634 64.0776 21.3385 64.0438 21.1713L65.3725 21.1733ZM64.1552 27.8416H64.181C64.1766 27.9339 64.1938 28.026 64.2311 28.1103C64.2685 28.1947 64.3249 28.269 64.3958 28.3271C64.5246 28.4369 64.687 28.4981 64.8553 28.5004H64.9767V28.6232H64.0955L64.1552 27.8416Z" fill="#11374D"/>
<path d="M70.9918 27.8093C70.9447 27.8883 70.9229 27.98 70.9293 28.0719C70.9358 28.1639 70.9701 28.2516 71.0276 28.3231C71.0749 28.3784 71.1332 28.4231 71.1986 28.4544C71.2641 28.4856 71.3352 28.5026 71.4075 28.5044H71.507V28.6273H69.0603V28.5044H69.1578C69.3399 28.4987 69.5174 28.4452 69.673 28.3492C69.8724 28.2206 70.0269 28.0317 70.1146 27.8093H70.9918ZM73.2952 20.8429L73.321 22.3337L70.6596 28.591H69.7585L72.6268 22.3458C72.6447 22.2954 72.6805 22.2068 72.7382 22.0778C72.7959 21.9489 72.8556 21.8059 72.9212 21.6427L73.1062 21.1834C73.1529 21.0746 73.1857 20.9601 73.2037 20.8429H73.2952ZM74.3733 26.1936V26.6791H71.2424V26.1936H74.3733ZM73.3051 20.8429L76.9353 28.5668H74.8586L72.5831 23.1153L73.3051 20.8429ZM74.5563 27.8093H76.5792C76.6737 28.0312 76.8317 28.2192 77.0327 28.3492C77.1883 28.4452 77.3658 28.4987 77.5479 28.5044H77.6454V28.6273H74.0371V28.5044H74.1346C74.2072 28.5026 74.2786 28.4856 74.3444 28.4544C74.4101 28.4232 74.4687 28.3785 74.5165 28.3231C74.5737 28.2515 74.6079 28.1638 74.6143 28.0719C74.6207 27.98 74.5991 27.8883 74.5523 27.8093H74.5563Z" fill="#11374D"/>
<path d="M80.3506 21.0161C80.5137 21.0161 80.7126 21.0161 80.9473 21.0423C81.182 21.0685 81.4108 21.0766 81.6396 21.0967C81.8683 21.1169 82.0712 21.1431 82.2482 21.1713C82.3701 21.1889 82.4904 21.2158 82.6083 21.2519L82.4491 22.7668H82.3298C82.3361 22.595 82.3035 22.424 82.2345 22.2669C82.1656 22.1098 82.0621 21.9707 81.9319 21.8603C81.6063 21.6168 81.206 21.4983 80.8021 21.5258C80.4668 21.5097 80.1349 21.6006 79.8533 21.7857C79.7394 21.863 79.645 21.9663 79.578 22.0875C79.5109 22.2086 79.4731 22.344 79.4674 22.4828C79.4486 22.6223 79.4767 22.7642 79.547 22.8857C79.6218 23.0111 79.7221 23.119 79.8414 23.202C79.9667 23.2926 80.1079 23.3833 80.2631 23.476L82.1885 24.6847C82.5087 24.8453 82.7765 25.0956 82.9603 25.4059C83.1562 25.7521 83.2423 26.1508 83.207 26.5482C83.1928 26.9816 83.0546 27.4016 82.8091 27.7569C82.5567 28.1055 82.2118 28.3744 81.8146 28.5326C81.3403 28.7204 80.8339 28.8115 80.3247 28.8005C79.9958 28.8023 79.6675 28.7726 79.3441 28.7119C79.0762 28.6663 78.815 28.5871 78.5664 28.4762C78.3805 28.3988 78.2116 28.2852 78.0691 28.1417C77.9994 27.9485 77.9703 27.7426 77.9835 27.5374C77.9917 27.298 78.0285 27.0606 78.0929 26.8302C78.1491 26.6182 78.2363 26.4158 78.3515 26.2299H78.449C78.4196 26.5851 78.4884 26.9416 78.6479 27.2593C78.8055 27.5739 79.0502 27.835 79.3521 28.0108C79.6919 28.2055 80.0777 28.3023 80.468 28.2908C80.8524 28.321 81.2338 28.2013 81.5341 27.9564C81.6453 27.8591 81.7346 27.7388 81.796 27.6036C81.8574 27.4685 81.8895 27.3215 81.8902 27.1727C81.8916 26.9518 81.8155 26.7376 81.6754 26.5683C81.4762 26.3484 81.2371 26.1692 80.9712 26.0405L79.2287 24.9244C78.8517 24.7393 78.5415 24.4392 78.3416 24.0662C78.1573 23.7078 78.0878 23.3001 78.1427 22.8998C78.1713 22.5362 78.2912 22.186 78.4908 21.8824C78.6836 21.5999 78.9492 21.3763 79.2586 21.2357C79.6024 21.0827 79.9751 21.0077 80.3506 21.0161ZM82.6063 21.129L82.5943 21.3526H81.2835V21.129H82.6063Z" fill="#11374D"/>
<path d="M84.9853 21.961H84.9495C84.9527 21.8721 84.9366 21.7836 84.9022 21.7018C84.8678 21.62 84.816 21.5468 84.7505 21.4876C84.6154 21.3658 84.4401 21.2997 84.2592 21.3022H84.1001V21.1773H84.9952L84.9853 21.961ZM84.9853 27.8456V28.6273H84.0901V28.5044H84.2493C84.4327 28.5046 84.609 28.4323 84.7406 28.3029C84.8051 28.2446 84.8562 28.1727 84.8906 28.0924C84.9249 28.012 84.9416 27.9251 84.9395 27.8376L84.9853 27.8456ZM86.7138 21.1773V28.6313H84.9495V21.1773H86.7138ZM86.6899 21.961V21.1773H87.5731L87.5592 21.3022H87.4259C87.2429 21.2976 87.065 21.3639 86.9286 21.4876C86.8626 21.5472 86.8094 21.6201 86.7724 21.7016C86.7354 21.783 86.7155 21.8714 86.7138 21.961H86.6899ZM86.6899 27.8456H86.7058C86.7086 27.9339 86.7291 28.0207 86.766 28.1007C86.8029 28.1807 86.8556 28.2522 86.9207 28.311C86.9864 28.3761 87.0641 28.4274 87.1495 28.4619C87.2348 28.4965 87.3261 28.5137 87.418 28.5124H87.5652V28.6353H86.682L86.6899 27.8456Z" fill="#11374D"/>
<path d="M89.1783 21.961H89.1545C89.1498 21.7836 89.0765 21.6151 88.9503 21.4919C88.8242 21.3687 88.6554 21.3006 88.4801 21.3022H88.3329V21.1773H89.1783V21.961ZM89.1783 27.8456L89.24 28.6273H88.3329V28.5044H88.4921C88.5782 28.5046 88.6635 28.4868 88.7426 28.4522C88.8216 28.4175 88.8928 28.3667 88.9516 28.3029C89.0746 28.1795 89.1458 28.0128 89.1505 27.8376L89.1783 27.8456ZM90.9188 21.1773V28.6313H89.1545V21.1773H90.9188ZM90.8949 21.961V21.1773H91.7403V21.3022H91.5931C91.4201 21.3003 91.2531 21.3668 91.1277 21.4876C91.0631 21.5482 91.0114 21.6213 90.9755 21.7027C90.9396 21.784 90.9203 21.8719 90.9188 21.961H90.8949ZM93.7752 28.1317L94.0656 28.6273H90.883V28.1317H93.7752ZM94.5848 26.3427L94.1074 28.6273H91.985L92.3649 28.1317C92.6907 28.1381 93.0131 28.0634 93.3038 27.9141C93.5825 27.765 93.8235 27.5526 94.0079 27.2936C94.2133 27.0063 94.3669 26.6843 94.4614 26.3427H94.5848Z" fill="#11374D"/>
<path d="M97.6301 17.7928V31.1374" stroke="#11374D" stroke-width="2" stroke-miterlimit="10"/>
<path d="M73.8263 33.3374H75.3281V33.8571H74.3454V34.3608H75.3281V34.8705H74.3454V35.6058H75.3281V36.1256H73.8263V33.3374Z" fill="#11374D"/>
<path d="M77.2635 33.7161L76.8756 34.0626C76.8335 33.9845 76.7736 33.9177 76.701 33.8676C76.6284 33.8175 76.5451 33.7856 76.4579 33.7745C76.3966 33.7718 76.3365 33.7918 76.2888 33.831C76.2691 33.8457 76.2529 33.8647 76.2415 33.8867C76.2301 33.9087 76.2239 33.933 76.2232 33.9579C76.2232 34.0059 76.2401 34.0523 76.2709 34.0888C76.3898 34.218 76.5181 34.3378 76.6548 34.4474C76.8537 34.6166 76.977 34.7254 77.0188 34.7677C77.111 34.8584 77.1876 34.9639 77.2456 35.08C77.29 35.1829 77.3124 35.2941 77.3112 35.4064C77.3142 35.5122 77.2947 35.6175 77.2543 35.7151C77.2138 35.8127 77.1532 35.9005 77.0765 35.9725C76.91 36.1256 76.6905 36.2059 76.4659 36.1961C76.2844 36.2 76.1059 36.1495 75.9527 36.051C75.7916 35.9325 75.6629 35.7744 75.5787 35.5917L76.0203 35.3217C76.1536 35.5695 76.3047 35.6924 76.4778 35.6924C76.5607 35.6952 76.6415 35.6664 76.7045 35.6118C76.7326 35.5904 76.7554 35.5627 76.7712 35.5309C76.7871 35.4991 76.7956 35.4641 76.796 35.4285C76.7945 35.3593 76.77 35.2926 76.7264 35.2391C76.6356 35.1316 76.5335 35.0344 76.4221 34.949C76.2036 34.7846 76.0077 34.5915 75.8393 34.3749C75.7569 34.2568 75.7112 34.1165 75.708 33.972C75.7075 33.878 75.7267 33.7851 75.7644 33.6993C75.8021 33.6135 75.8575 33.5368 75.9268 33.4744C76.0733 33.338 76.267 33.2656 76.4659 33.2729C76.6042 33.2722 76.7407 33.3054 76.8637 33.3696C77.0169 33.4592 77.1524 33.5767 77.2635 33.7161Z" fill="#11374D"/>
<path d="M80.1736 35.7186L80.6529 36.3471H80.0323L79.7897 36.0288C79.5146 36.1742 79.2009 36.2269 78.8943 36.179C78.5876 36.1312 78.3041 35.9854 78.085 35.7629C77.885 35.5574 77.7493 35.2967 77.6949 35.0134C77.6405 34.7302 77.6699 34.437 77.7792 34.1705C77.8886 33.9041 78.0731 33.6762 78.3097 33.5155C78.5463 33.3547 78.8245 33.2682 79.1094 33.2668C79.2973 33.2644 79.4836 33.3013 79.6568 33.3751C79.83 33.449 79.9863 33.5582 80.1159 33.6959C80.3735 33.963 80.5225 34.3186 80.5332 34.6918C80.5439 35.0651 80.4155 35.4287 80.1736 35.7105V35.7186ZM79.8474 35.2955C79.9562 35.1319 80.0138 34.9388 80.0124 34.7415C80.0149 34.6173 79.993 34.4939 79.9479 34.3784C79.9028 34.2628 79.8355 34.1576 79.7499 34.0686C79.6659 33.9822 79.5657 33.9136 79.4552 33.8667C79.3447 33.8199 79.2262 33.7957 79.1064 33.7957C78.9866 33.7957 78.8681 33.8199 78.7576 33.8667C78.6471 33.9136 78.547 33.9822 78.4629 34.0686C78.3764 34.1589 78.3088 34.2659 78.264 34.3833C78.2193 34.5006 78.1983 34.6259 78.2023 34.7516C78.1967 34.8913 78.2234 35.0304 78.2804 35.1578C78.3374 35.2851 78.4231 35.3972 78.5306 35.4849C78.6958 35.6187 78.9019 35.6899 79.1134 35.6864C79.2353 35.6873 79.356 35.6619 79.4674 35.6118L78.9741 34.9692H79.5987L79.8474 35.2955Z" fill="#11374D"/>
<path d="M81.013 33.3374H81.5341V35.1505C81.5274 35.2622 81.5409 35.3741 81.5739 35.4809C81.6007 35.5453 81.6475 35.599 81.7072 35.634C81.7741 35.6753 81.8516 35.6956 81.93 35.6924C82.014 35.6947 82.0969 35.6723 82.1687 35.628C82.2317 35.5907 82.2807 35.5333 82.3079 35.4648C82.3402 35.3407 82.353 35.2122 82.3457 35.084V33.3474H82.8728V35.0095C82.8809 35.2055 82.8649 35.4017 82.8251 35.5937C82.7888 35.7105 82.7277 35.8177 82.6461 35.908C82.5639 36.0068 82.4595 36.0842 82.3417 36.1336C82.2151 36.184 82.0799 36.2086 81.9439 36.2061C81.7607 36.2109 81.5799 36.1627 81.4227 36.0671C81.2845 35.986 81.1736 35.8645 81.1045 35.7186C81.0273 35.4908 80.9948 35.2499 81.009 35.0095L81.013 33.3374Z" fill="#11374D"/>
<path d="M84.3189 33.3374H84.85L85.9102 36.1256H85.3731L85.1563 35.5514H84.0325L83.8097 36.1256H83.2647L84.3189 33.3374ZM84.5874 34.0767L84.2174 35.0337H84.9554L84.5874 34.0767Z" fill="#11374D"/>
<path d="M86.3239 33.3374H86.9465C87.251 33.3196 87.5555 33.3712 87.8377 33.4885C88.0429 33.5992 88.2106 33.7697 88.319 33.978C88.4488 34.2208 88.514 34.4937 88.508 34.7697C88.5099 34.9721 88.4741 35.1731 88.4026 35.362C88.3393 35.5319 88.2394 35.6854 88.1102 35.8113C87.9977 35.9232 87.8617 36.008 87.7123 36.0591C87.4649 36.1138 87.2115 36.1362 86.9585 36.1256H86.3279L86.3239 33.3374ZM86.8451 33.8491V35.6078H87.0898C87.2673 35.6193 87.4452 35.5911 87.6109 35.5252C87.7254 35.4616 87.8177 35.3638 87.8755 35.2452C87.948 35.0934 87.9835 34.9262 87.9789 34.7577C87.9867 34.6318 87.9688 34.5057 87.9263 34.3872C87.8839 34.2686 87.8178 34.1602 87.7322 34.0687C87.5336 33.9045 87.2794 33.8257 87.0241 33.8491H86.8451Z" fill="#11374D"/>
<path d="M89.0431 33.3374H89.598C89.818 33.3245 90.0384 33.3525 90.2485 33.42C90.3788 33.4752 90.4882 33.5712 90.5608 33.6939C90.6413 33.8308 90.682 33.9879 90.6781 34.1472C90.6837 34.3103 90.6384 34.471 90.5488 34.6065C90.4476 34.7389 90.3088 34.8367 90.151 34.8866L90.8034 36.1255H90.2306L89.612 34.945H89.5642V36.1255H89.0391L89.0431 33.3374ZM89.5682 34.4272H89.7313C89.8505 34.4377 89.9703 34.4147 90.0774 34.3608C90.1099 34.3346 90.1355 34.3006 90.1518 34.2619C90.1681 34.2232 90.1747 34.1811 90.1709 34.1392C90.1722 34.0829 90.1554 34.0278 90.1232 33.982C90.0937 33.9365 90.0504 33.9018 89.9998 33.8833C89.9055 33.8602 89.8084 33.8507 89.7114 33.8551H89.5682V34.4272Z" fill="#11374D"/>
<path d="M91.1953 33.3374H91.7145V36.1256H91.1953V33.3374Z" fill="#11374D"/>
<path d="M93.1446 33.3374H93.6777L94.7359 36.1256H94.1909L93.9761 35.5514H92.8522L92.6275 36.1256H92.0765L93.1446 33.3374ZM93.4152 34.0767L93.0452 35.0337H93.7812L93.4152 34.0767Z" fill="#11374D"/>
<path d="M96.5878 33.7161L96.1999 34.0626C96.1578 33.9845 96.098 33.9177 96.0253 33.8676C95.9527 33.8175 95.8694 33.7856 95.7822 33.7745C95.7209 33.7718 95.6608 33.7918 95.6131 33.8309C95.5934 33.8457 95.5772 33.8647 95.5658 33.8867C95.5545 33.9087 95.5482 33.933 95.5475 33.9579C95.5475 34.0059 95.5644 34.0523 95.5952 34.0888C95.7141 34.218 95.8425 34.3378 95.9791 34.4474C96.1781 34.6166 96.3014 34.7254 96.3432 34.7677C96.4359 34.8578 96.5126 34.9635 96.5699 35.08C96.6143 35.1828 96.6367 35.2941 96.6355 35.4063C96.6385 35.5122 96.6191 35.6175 96.5786 35.7151C96.5381 35.8127 96.4775 35.9005 96.4008 35.9724C96.2343 36.1256 96.0149 36.2059 95.7902 36.1961C95.6087 36.2 95.4302 36.1495 95.277 36.051C95.1159 35.9325 94.9873 35.7744 94.903 35.5917L95.3446 35.3217C95.4779 35.5695 95.6291 35.6924 95.8021 35.6924C95.885 35.6952 95.9659 35.6664 96.0289 35.6118C96.0569 35.5904 96.0797 35.5627 96.0956 35.5309C96.1114 35.4991 96.1199 35.4641 96.1204 35.4285C96.1188 35.3593 96.0943 35.2925 96.0507 35.2391C95.9599 35.1316 95.8579 35.0344 95.7464 34.949C95.528 34.7846 95.332 34.5915 95.1636 34.3749C95.0813 34.2568 95.0356 34.1165 95.0323 33.972C95.0339 33.8788 95.0549 33.787 95.094 33.7026C95.1331 33.6183 95.1893 33.5432 95.2591 33.4824C95.4056 33.346 95.5993 33.2736 95.7981 33.281C95.9365 33.2803 96.073 33.3135 96.196 33.3777C96.3456 33.4656 96.4784 33.5803 96.5878 33.7161Z" fill="#11374D"/>
<path d="M98.2109 33.3374H99.7147V33.8571H98.7321V34.3608H99.7147V34.8705H98.7321V35.6058H99.7147V36.1256H98.2109V33.3374Z" fill="#11374D"/>
<path d="M100.471 33.3374H100.98L101.618 35.2835L102.263 33.3374H102.774L103.235 36.1256H102.728L102.434 34.3648L101.849 36.1256H101.386L100.807 34.3648L100.504 36.1256H99.9932L100.471 33.3374Z" fill="#11374D"/>
<path d="M105.567 33.3374H106.098L107.158 36.1256H106.613L106.398 35.5514H105.274L105.052 36.1256H104.507L105.567 33.3374ZM105.835 34.0767L105.465 35.0337H106.199L105.835 34.0767Z" fill="#11374D"/>
<path d="M107.562 33.3374H108.087V35.6199H108.851V36.1256H107.562V33.3374Z" fill="#11374D"/>
<path d="M109.231 33.3374H109.758V35.1505C109.751 35.2622 109.765 35.3741 109.798 35.4809C109.824 35.5453 109.871 35.599 109.931 35.634C109.998 35.6753 110.075 35.6956 110.154 35.6924C110.238 35.6947 110.321 35.6723 110.392 35.628C110.455 35.5907 110.504 35.5333 110.532 35.4648C110.564 35.3407 110.577 35.2122 110.569 35.084V33.3474H111.096V35.0095C111.105 35.2055 111.089 35.4017 111.049 35.5937C111.012 35.7105 110.951 35.8177 110.87 35.908C110.788 36.0068 110.683 36.0842 110.565 36.1336C110.439 36.184 110.304 36.2086 110.168 36.2061C109.984 36.2109 109.804 36.1627 109.646 36.0671C109.508 35.986 109.397 35.8645 109.328 35.7186C109.251 35.4908 109.218 35.2499 109.233 35.0095L109.231 33.3374Z" fill="#11374D"/>
<path d="M111.968 33.3374H112.479L113.117 35.2835L113.762 33.3374H114.271L114.733 36.1256H114.227L113.931 34.3648L113.36 36.1256H112.899L112.318 34.3648L112.015 36.1256H111.504L111.968 33.3374Z" fill="#11374D"/>
<path d="M115.463 32.3764H116.059L115.373 33.1218H115.007L115.463 32.3764ZM115.118 33.3374H115.638V36.1255H115.118V33.3374Z" fill="#11374D"/>
<path d="M116.23 33.3374H116.742L117.919 35.1727V33.3374H118.442V36.1256H117.935L116.754 34.2883V36.1175H116.23V33.3374Z" fill="#11374D"/>
<path d="M119.027 33.3374H119.548V36.1256H119.027V33.3374Z" fill="#11374D"/>
<path d="M121.438 33.2669C121.624 33.266 121.808 33.3036 121.979 33.3774C122.15 33.4512 122.304 33.5596 122.432 33.696C122.701 33.9732 122.852 34.3461 122.852 34.7345C122.852 35.1229 122.701 35.4958 122.432 35.773C122.298 35.9081 122.139 36.015 121.964 36.0876C121.789 36.1602 121.601 36.1971 121.412 36.1961C121.223 36.1952 121.036 36.1564 120.861 36.0821C120.687 36.0078 120.529 35.8993 120.396 35.7629C120.263 35.6272 120.158 35.4661 120.088 35.289C120.017 35.112 119.982 34.9224 119.984 34.7315C119.985 34.4722 120.053 34.2179 120.183 33.9941C120.312 33.7717 120.497 33.5882 120.72 33.4623C120.938 33.3333 121.186 33.2658 121.438 33.2669ZM121.438 33.7866C121.318 33.7837 121.199 33.8061 121.088 33.8526C120.978 33.8991 120.878 33.9686 120.795 34.0566C120.709 34.1469 120.641 34.2539 120.597 34.3712C120.552 34.4885 120.531 34.6138 120.535 34.7395C120.529 34.8792 120.556 35.0183 120.613 35.1457C120.67 35.273 120.756 35.3851 120.863 35.4728C121.029 35.6075 121.236 35.6788 121.448 35.6743C121.566 35.6761 121.684 35.6529 121.793 35.6061C121.903 35.5592 122.001 35.4898 122.082 35.4023C122.252 35.2199 122.346 34.9789 122.346 34.7284C122.346 34.478 122.252 34.2369 122.082 34.0546C121.999 33.9657 121.898 33.8959 121.786 33.8497C121.674 33.8035 121.553 33.782 121.432 33.7866H121.438Z" fill="#11374D"/>
</svg>
